<?xml version="1.0" encoding="utf-8"?>
<!-- Generator: Adobe Illustrator 18.1.1, SVG Export Plug-In . SVG Version: 6.00 Build 0)  -->
<!DOCTYPE svg PUBLIC "-//W3C//DTD SVG 1.1//EN" "http://www.w3.org/Graphics/SVG/1.1/DTD/svg11.dtd">
<svg version="1.1" id="Layer_1" xmlns="http://www.w3.org/2000/svg" xmlns:xlink="http://www.w3.org/1999/xlink" x="0px" y="0px"
	 viewBox="0 0 600 600" enable-background="new 0 0 600 600" xml:space="preserve">
<g>
	<g>
		<path d="M553.5,162.7c-14.3-13.7-31.6-20.6-51.8-20.6h-64.2l-14.6-37.3c-3.6-9-10.3-16.7-19.9-23.2c-9.6-6.5-19.5-9.7-29.6-9.7
			H226.7c-10.1,0-20,3.3-29.6,9.7c-9.7,6.5-16.3,14.2-19.9,23.2l-14.6,37.3H98.3c-20.3,0-37.5,6.9-51.9,20.6
			C32.2,176.4,25,192.9,25,212.3v245.6c0,19.4,7.2,35.9,21.5,49.6c14.3,13.7,31.6,20.5,51.9,20.5h403.3c20.2,0,37.5-6.8,51.8-20.5
			c14.3-13.7,21.5-30.3,21.5-49.6V212.3C575,192.9,567.8,176.4,553.5,162.7z M390.7,421.9c-25.1,24-55.3,36-90.7,36
			c-35.3,0-65.5-12-90.7-36c-25.1-24-37.7-53-37.7-86.8c0-33.8,12.6-62.7,37.7-86.8c25.1-24,55.3-36.1,90.7-36.1
			c35.3,0,65.5,12,90.7,36.1c25.1,24,37.7,52.9,37.7,86.8C428.3,368.9,415.8,397.8,390.7,421.9z M300,256.1
			c-22.7,0-42.1,7.7-58.3,23.2c-16.1,15.4-24.2,34-24.2,55.8c0,21.7,8.1,40.3,24.2,55.8c16.1,15.4,35.6,23.2,58.3,23.2
			c22.7,0,42.2-7.7,58.3-23.2c16.1-15.4,24.2-34,24.2-55.8c0-21.7-8.1-40.3-24.2-55.8C342.2,263.9,322.7,256.1,300,256.1z"/>
	</g>
</g>
</svg>
