<?xml version="1.0" encoding="utf-8"?>
<!-- Generator: Adobe Illustrator 18.1.1, SVG Export Plug-In . SVG Version: 6.00 Build 0)  -->
<!DOCTYPE svg PUBLIC "-//W3C//DTD SVG 1.1//EN" "http://www.w3.org/Graphics/SVG/1.1/DTD/svg11.dtd">
<svg version="1.1" id="Layer_1" xmlns="http://www.w3.org/2000/svg" xmlns:xlink="http://www.w3.org/1999/xlink" x="0px" y="0px"
	 viewBox="0 0 600 600" enable-background="new 0 0 600 600" xml:space="preserve">
<g>
	<g>
		<path d="M330.1,259.1c-6.1,0-11.1,5-11.1,11.2c0,6.2,5,11.2,11.1,11.2c6.1,0,11.1-5,11.1-11.2
			C341.1,264.1,336.2,259.1,330.1,259.1z M393.4,176.6c-8.1,0-14.7,6.7-14.7,14.9c0,8.2,6.6,14.9,14.7,14.9
			c8.1,0,14.7-6.7,14.7-14.9C408.1,183.2,401.5,176.6,393.4,176.6z M266.2,152.2c-10.9,0-19.7,8.9-19.7,20c0,11,8.8,20,19.7,20
			c10.9,0,19.7-8.9,19.7-20C285.9,161.2,277.1,152.2,266.2,152.2z M471.9,106.5C448,76.3,386,25,305,25
			c-54.1,0-105.7,22.9-153.1,68.2c-0.1,0.1-0.2,0.2-0.2,0.2c-46.3,48.3-40.2,92.9-32.6,149.4c0.5,3.5,0.9,7,1.4,10.6
			c1.3,9.6-7,24.4-15,38.7c-12,21.5-24.5,43.8-9.3,54.3c26,18,30.5,53.3,34.9,87.6c1,8.1,2.1,16.5,3.5,24.7
			c2.3,14.1,14,20.9,35.8,20.9c9.7,0,20-1.2,30.1-2.4c8.6-1,16.7-2,23.2-2c3.6,0,6.5,0.3,8.7,0.9c26.2,7.2,49.1,60.9,57.4,93.1
			c0.7,2.6,2.7,4.7,5.2,5.4c0.7,0.2,1.4,0.3,2.1,0.3c1.9,0,3.8-0.7,5.2-2.1l134.3-130c2.1-2,2.8-5.1,2-7.8
			c-11.9-37.6,12.8-74.3,34.5-106.7c9.5-14.1,18.5-27.5,24.6-40.7C525.7,227,505.4,149.1,471.9,106.5z M286.2,234.7l-5-8.1
			c-3.7,1-7.5,1.7-11.3,2l-2.1,9.3c-0.7,3.3-4,5.4-7.3,4.7l-19.2-4.4c-3.3-0.8-5.3-4.1-4.6-7.4l2.1-9.3c-3.3-1.9-6.4-4.1-9.3-6.7
			l-7.9,5.1c-2.9,1.8-6.6,1-8.4-1.9L202.7,201c-1.8-2.9-0.9-6.7,1.9-8.5l7.9-5.1c-1-3.8-1.7-7.6-1.9-11.4l-9.2-2.1
			c-3.3-0.8-5.3-4.1-4.6-7.4l4.4-19.4c0.7-3.3,4-5.4,7.3-4.7l9.2,2.1c1.9-3.3,4.1-6.5,6.6-9.4l-5-8.1c-1.8-2.9-0.9-6.7,1.9-8.5
			l16.6-10.6c2.9-1.8,6.6-1,8.4,1.9l5,8c3.7-1,7.5-1.7,11.3-1.9l2.1-9.3c0.7-3.3,4-5.4,7.3-4.7l19.2,4.4c3.3,0.8,5.3,4.1,4.6,7.4
			l-2.1,9.3c3.3,1.9,6.4,4.1,9.3,6.7l7.9-5.1c2.9-1.8,6.6-1,8.4,1.9l10.5,16.9c1.8,2.9,0.9,6.7-1.9,8.5l-7.9,5.1
			c1,3.8,1.7,7.6,1.9,11.4l9.1,2.1c3.3,0.8,5.3,4.1,4.6,7.4l-4.4,19.4c-0.7,3.3-4,5.4-7.3,4.7l-9.2-2.1c-1.9,3.3-4.1,6.5-6.6,9.5
			l5,8c1.8,2.9,0.9,6.7-1.9,8.5l-16.6,10.6C291.8,238.4,288,237.6,286.2,234.7z M366.5,269.8l-5.1,1.4c-0.1,2.2-0.3,4.3-0.8,6.5
			l4.6,2.7c1.6,1,2.2,3.1,1.3,4.8l-5.5,9.7c-0.9,1.7-3.1,2.2-4.7,1.3l-4.6-2.7c-1.6,1.5-3.3,2.8-5.1,4l1.4,5.2
			c0.5,1.9-0.6,3.8-2.4,4.3l-10.7,2.9c-1.8,0.5-3.7-0.6-4.2-2.5l-1.4-5.2c-2.1-0.1-4.3-0.3-6.4-0.8l-2.6,4.6c-0.9,1.7-3,2.2-4.7,1.3
			l-9.6-5.6c-1.6-1-2.2-3.1-1.3-4.8l2.6-4.6c-1.5-1.6-2.8-3.3-3.9-5.2l-5.1,1.4c-1.8,0.5-3.7-0.6-4.2-2.5l-2.9-10.8
			c-0.5-1.9,0.6-3.8,2.4-4.3l5.1-1.4c0.1-2.2,0.3-4.3,0.8-6.5l-4.6-2.7c-1.6-1-2.2-3.1-1.3-4.8l5.5-9.7c1-1.7,3.1-2.2,4.7-1.3
			l4.6,2.7c1.6-1.5,3.3-2.8,5.1-4l-1.4-5.2c-0.5-1.9,0.6-3.8,2.4-4.3l10.7-2.9c1.8-0.5,3.7,0.6,4.2,2.5l1.4,5.2
			c2.1,0.1,4.3,0.3,6.4,0.8l2.6-4.6c0.9-1.7,3.1-2.2,4.7-1.3l9.6,5.6c1.6,1,2.2,3.1,1.3,4.8l-2.6,4.6c1.5,1.6,2.8,3.3,3.9,5.2
			l5.1-1.4c1.8-0.5,3.7,0.6,4.2,2.5l2.9,10.8C369.4,267.4,368.4,269.3,366.5,269.8z M441.7,190.8l-6.8,1.8c-0.1,2.9-0.4,5.7-1.1,8.6
			l6.1,3.5c2.2,1.3,2.9,4.1,1.7,6.3l-7.3,12.9c-1.3,2.2-4,3-6.2,1.7l-6.1-3.5c-2.1,2-4.4,3.8-6.8,5.3l1.8,6.9c0.7,2.5-0.8,5-3.2,5.7
			l-14.2,3.8c-2.4,0.7-4.9-0.8-5.6-3.3l-1.8-6.9c-2.8-0.1-5.6-0.4-8.4-1.1l-3.5,6.1c-1.3,2.2-4,3-6.2,1.7l-12.7-7.4
			c-2.2-1.3-2.9-4.1-1.7-6.3l3.5-6.1c-2-2.1-3.7-4.4-5.2-6.9l-6.8,1.8c-2.4,0.7-4.9-0.8-5.6-3.3l-3.8-14.4c-0.6-2.5,0.8-5,3.2-5.7
			l6.8-1.8c0.1-2.9,0.4-5.7,1.1-8.6l-6.1-3.5c-2.2-1.3-2.9-4.1-1.7-6.3l7.3-12.9c1.3-2.2,4-3,6.2-1.7l6.1,3.6c2.1-2,4.3-3.8,6.8-5.3
			l-1.8-6.8c-0.7-2.5,0.8-5,3.2-5.7l14.2-3.9c2.4-0.7,4.9,0.8,5.6,3.3l1.8,6.9c2.8,0.1,5.6,0.4,8.4,1.1l3.5-6.1c1.3-2.2,4-3,6.2-1.7
			l12.7,7.4c2.2,1.3,2.9,4.1,1.7,6.3l-3.5,6.1c2,2.1,3.7,4.4,5.2,6.8l6.8-1.8c2.4-0.7,4.9,0.8,5.6,3.3l3.8,14.4
			C445.6,187.6,444.1,190.1,441.7,190.8z"/>
	</g>
</g>
</svg>
