<?xml version="1.0" encoding="utf-8"?>
<!-- Generator: Adobe Illustrator 18.1.1, SVG Export Plug-In . SVG Version: 6.00 Build 0)  -->
<!DOCTYPE svg PUBLIC "-//W3C//DTD SVG 1.1//EN" "http://www.w3.org/Graphics/SVG/1.1/DTD/svg11.dtd">
<svg version="1.1" id="Layer_1" xmlns="http://www.w3.org/2000/svg" xmlns:xlink="http://www.w3.org/1999/xlink" x="0px" y="0px"
	 viewBox="0 0 600 600" enable-background="new 0 0 600 600" xml:space="preserve">
<path d="M44.3,365.7V126.4c0-13.3,10.5-24.1,23.5-24.1h233.9c13,0,23.5,10.8,23.5,24.1v239.3c0,4.4-3.5,8-7.8,8H52.1
	C47.8,373.8,44.3,370.2,44.3,365.7L44.3,365.7z M233.2,447.7c0,27.6-21.9,49.9-48.8,49.9c-27,0-48.8-22.4-48.8-49.9
	c0-27.6,21.9-49.9,48.8-49.9C211.3,397.8,233.2,420.1,233.2,447.7L233.2,447.7z M208.8,447.7c0-13.8-10.9-25-24.4-25
	c-13.5,0-24.4,11.2-24.4,25c0,13.8,10.9,25,24.4,25C197.8,472.7,208.8,461.5,208.8,447.7L208.8,447.7z M142.3,397.8H32.8
	c-4.3,0-7.8,3.6-7.8,8v24.4c0,4.4,3.5,8,7.8,8h87.7C122.8,422.1,130.8,407.9,142.3,397.8L142.3,397.8z M488.7,447.7
	c0,27.6-21.9,49.9-48.8,49.9c-27,0-48.8-22.4-48.8-49.9c0-27.6,21.9-49.9,48.8-49.9C466.8,397.8,488.7,420.1,488.7,447.7
	L488.7,447.7z M464.3,447.7c0-13.8-10.9-25-24.4-25s-24.4,11.2-24.4,25c0,13.8,10.9,25,24.4,25S464.3,461.5,464.3,447.7L464.3,447.7
	z M575,405.8v24.4c0,4.4-3.5,8-7.8,8h-63.5c-4.5-31.9-31.4-56.5-63.8-56.5c-32.4,0-59.2,24.6-63.8,56.5H248.1
	c-2.3-16.1-10.2-30.3-21.7-40.4h121.3V168.2c0-8.9,7-16.1,15.7-16.1h74.1c20.9,0,40.4,10.6,52,28.3l47.8,72.3
	c7,10.6,10.7,23.1,10.7,35.9v109.1h19.1C571.5,397.8,575,401.4,575,405.8L575,405.8z M495.4,254.6l-38.2-55.5
	c-1.5-2.1-3.9-3.4-6.4-3.4h-59.6c-4.3,0-7.8,3.6-7.8,8v55.5c0,4.4,3.5,8,7.8,8H489C495.3,267.3,499,259.9,495.4,254.6L495.4,254.6z
	 M495.4,254.6"/>
</svg>
