<?xml version="1.0" encoding="utf-8"?>
<!-- Generator: Adobe Illustrator 18.1.1, SVG Export Plug-In . SVG Version: 6.00 Build 0)  -->
<!DOCTYPE svg PUBLIC "-//W3C//DTD SVG 1.1//EN" "http://www.w3.org/Graphics/SVG/1.1/DTD/svg11.dtd">
<svg version="1.1" id="Layer_1" xmlns="http://www.w3.org/2000/svg" xmlns:xlink="http://www.w3.org/1999/xlink" x="0px" y="0px"
	 viewBox="0 0 600 600" enable-background="new 0 0 600 600" xml:space="preserve">
<path d="M576,174.5c0,12,0,90.2,0,125c0,10.2-5.8,17.8-13.3,19.2c-10.9,2.1-25.3,4.7-29.7,5.3c-7.3,0.9-30.3,8.2-47-7.5
	c-25.7-24.2-117-113.3-117-113.3s-15.7-15.2-41-2.1c-23.2,12-57.6,29.6-72,36.5c-27.2,14.2-49.7-8.3-49.7-25.5
	c0-13.3,8.5-22.3,20.5-29c32.8-19.5,101.8-57.5,130.6-72.5c17.5-9.1,30.1-9.9,54.1,9.9c29.6,24.4,55.9,46.7,55.9,46.7
	s8.6,7,22.3,4.2c20.9-4.3,49.3-10.5,67.7-14.5C568.5,154.4,576,159,576,174.5z M212.5,429.7c4.4-11.2,2.9-23.6-5.5-32.2
	c-7.6-7.7-18.7-9.7-29.3-7.3c3-10.3,1.3-21.3-6.3-29.1c-7.6-7.6-18.7-9.7-29.3-7.3c2.9-10.3,1.3-21.3-6.4-29
	c-12-12.1-32.8-11.6-46.4,1.2c-13.6,12.8-22.3,35.9-10.2,49.5c12.1,13.6,26,5.3,36.6,2.9c-2.9,10.3-11.8,19.9-0.9,33.4
	c10.9,13.5,26,5.3,36.6,3c-3,10.3-11.4,20.8-0.9,33.3c10.5,12.6,27.8,5.9,39.2,2.4c-4.4,11.1-13.8,23.1-1.7,36.5
	c12.1,13.5,40,7.3,53.7-5.5c13.6-12.8,14.9-33,2.9-45.1C236.2,428.1,223.9,426.2,212.5,429.7L212.5,429.7z M461.5,344.6
	c-98.6-96.8-52.2-51.3-105.3-103.5c0,0-16-15.6-37-6.5c-14.8,6.3-33.8,15-48.1,21.6c-15.7,8.1-27,10.6-32.3,10.6
	c-30.4-0.2-55-24.2-55-53.9c0-19.3,10.4-36.1,26-45.7c21.9-14.9,72.4-41.2,72.4-41.2s-15.4-19.1-49-19.1c-33.7,0-104,45.2-104,45.2
	s-20,12.5-48.4,1.3l-37.9-13c0,0-16.9-4.3-16.9,13.2c0,14.2,0,116.2,0,154c0,8.7,5.4,15.6,12.7,18c5.1,1.7,11.2,3.8,17,6.2
	c3.2-8.9,8.3-17.1,15.4-23.9c23.3-21.8,62-22,83.2-0.6c6.4,6.5,10.9,14.3,13.1,22.9c8.6,2.6,16.3,7.2,22.5,13.5
	c6.4,6.5,10.9,14.3,13.2,22.9c8.5,2.6,16.3,7.2,22.5,13.5c7,7.1,11.7,15.7,13.9,25c8.9,2.6,17,7.3,23.5,13.8
	c12.8,12.9,17.3,30.3,14.5,47.1c0,0,0.1,0,0.1,0c0.2,0.3,7.9,8.7,12.7,13.4c9.4,9.2,24.8,9.2,34.2,0c9.4-9.2,9.4-24.3,0-33.6
	c-0.3-0.3-33.9-34.8-31.2-37.5c2.7-2.7,45.5,41.1,46.3,41.9c9.4,9.2,24.7,9.2,34.2,0c9.4-9.2,9.4-24.3,0-33.5
	c-0.5-0.4-2.4-2.2-3.1-3c0,0-42.4-37.1-39.2-40.3c3.3-3.2,56,45.1,56.1,45.1c9.5,8.4,24.1,8.3,33.2-0.6c8.9-8.7,9.1-22.5,1.2-31.7
	c-0.2-0.5-40.2-41.5-37-44.6c3.2-3.1,42.7,36.9,42.8,37c9.4,9.2,24.7,9.2,34.2,0c9.4-9.2,9.4-24.3,0-33.6
	C461.8,344.8,461.6,344.7,461.5,344.6L461.5,344.6z M461.5,344.6"/>
</svg>
