<?xml version="1.0" encoding="utf-8"?>
<!-- Generator: Adobe Illustrator 18.1.1, SVG Export Plug-In . SVG Version: 6.00 Build 0)  -->
<!DOCTYPE svg PUBLIC "-//W3C//DTD SVG 1.1//EN" "http://www.w3.org/Graphics/SVG/1.1/DTD/svg11.dtd">
<svg version="1.1" id="Layer_1" xmlns="http://www.w3.org/2000/svg" xmlns:xlink="http://www.w3.org/1999/xlink" x="0px" y="0px"
	 viewBox="0 0 600 600" enable-background="new 0 0 600 600" xml:space="preserve">
<g>
	<g>
		<path d="M198.4,218.4c2.7,1.8,5.8,2.8,9,2.8c2.1,0,4.2-0.4,6.2-1.2l51.9-21.7c8.5,9.6,20.8,15.7,34.5,15.7
			c13.7,0,26-6.1,34.5-15.7l51.9,21.7c2,0.8,4.1,1.2,6.2,1.2c3.2,0,6.3-0.9,9-2.8c17.2-11.7,19.1-40.5,19.1-52.3
			c0-11.8-1.9-40.6-19.1-52.3c-4.5-3-10.2-3.6-15.2-1.5l-53.4,22.3c-8.4-8.7-20.1-14.2-33.1-14.2c-13,0-24.7,5.4-33.1,14.2
			l-53.4-22.3c-5-2.1-10.7-1.5-15.2,1.5c-17.2,11.7-19.1,40.5-19.1,52.3C179.3,177.9,181.2,206.7,198.4,218.4z M386.2,147.8
			c1.2,4.4,2.1,10.6,2.1,18.3c0,7.6-1,13.8-2.1,18.3l-40-16.7c0-0.2,0-0.3,0-0.5c0-0.9,0-1.7-0.1-2.6L386.2,147.8z M300,153.1
			c7.6,0,13.8,6.3,13.8,14c0,7.7-6.2,14-13.8,14c-7.6,0-13.8-6.3-13.8-14C286.2,159.4,292.4,153.1,300,153.1z M213.8,147.8
			l40.1,16.7c0,0.9-0.1,1.7-0.1,2.6c0,0.2,0,0.3,0,0.5l-40,16.7c-1.2-4.4-2.1-10.7-2.1-18.3C211.7,158.4,212.6,152.2,213.8,147.8z
			 M300,363.4c-25.5,0-46.2,21-46.2,46.8c0,25.8,20.7,46.8,46.2,46.8c25.5,0,46.2-21,46.2-46.8C346.2,384.4,325.5,363.4,300,363.4z
			 M300,424.2c-7.6,0-13.8-6.3-13.8-14c0-7.7,6.2-14,13.8-14c7.6,0,13.8,6.3,13.8,14C313.8,417.9,307.6,424.2,300,424.2z M300,241.9
			c-25.5,0-46.2,21-46.2,46.8c0,25.8,20.7,46.8,46.2,46.8c25.5,0,46.2-21,46.2-46.8C346.2,262.9,325.5,241.9,300,241.9z M300,302.6
			c-7.6,0-13.8-6.3-13.8-14c0-7.7,6.2-14,13.8-14c7.6,0,13.8,6.3,13.8,14C313.8,296.4,307.6,302.6,300,302.6z M124,155.1
			c-1.8-5.1-5.4-9.4-10.1-12c-5.9-3.3-12.9-5-20.6-5c-24.2,0-62.6,18.5-67.9,47.5c-1,5.3,0,10.9,2.8,15.5l164.3,277.1
			c4.1,6.9,11.4,10.8,18.9,10.8c3.2,0,6.4-0.7,9.5-2.2c10.3-4.9,15.1-16.9,11.3-27.8L124,155.1z M574.6,185.6
			c-5.3-29-43.7-47.5-67.9-47.5c-7.7,0-14.7,1.7-20.6,5c-4.7,2.6-8.3,6.9-10.1,12L367.9,459.1c-3.9,10.8,1,22.8,11.3,27.8
			c3,1.5,6.3,2.2,9.4,2.2c7.5,0,14.8-3.9,18.9-10.8l164.3-277.1C574.6,196.5,575.6,191,574.6,185.6z"/>
	</g>
</g>
</svg>
