<?xml version="1.0" encoding="utf-8"?>
<!-- Generator: Adobe Illustrator 18.1.1, SVG Export Plug-In . SVG Version: 6.00 Build 0)  -->
<!DOCTYPE svg PUBLIC "-//W3C//DTD SVG 1.1//EN" "http://www.w3.org/Graphics/SVG/1.1/DTD/svg11.dtd">
<svg version="1.1" id="Layer_1" xmlns="http://www.w3.org/2000/svg" xmlns:xlink="http://www.w3.org/1999/xlink" x="0px" y="0px"
	 viewBox="0 0 600 600" enable-background="new 0 0 600 600" xml:space="preserve">
<path d="M300,25C148.1,25,25,148.1,25,300c0,151.9,123.1,275,275,275s275-123.1,275-275C575,148.1,451.9,25,300,25L300,25z
	 M431.6,322.1l-164,112.9c-4.6,3.1-9.9,4.7-15.2,4.7c-4.3,0-8.5-1-12.5-3.1c-8.8-4.7-14.3-13.8-14.3-23.7V187.2
	c0-9.9,5.5-19.1,14.3-23.7c8.8-4.6,19.5-4,27.7,1.6l164,112.9c7.3,5,11.6,13.3,11.6,22.1C443.2,308.8,438.9,317.1,431.6,322.1
	L431.6,322.1z M431.6,322.1"/>
</svg>
