<?xml version="1.0" encoding="utf-8"?>
<!-- Generator: Adobe Illustrator 18.1.1, SVG Export Plug-In . SVG Version: 6.00 Build 0)  -->
<!DOCTYPE svg PUBLIC "-//W3C//DTD SVG 1.1//EN" "http://www.w3.org/Graphics/SVG/1.1/DTD/svg11.dtd">
<svg version="1.1" id="Layer_1" xmlns="http://www.w3.org/2000/svg" xmlns:xlink="http://www.w3.org/1999/xlink" x="0px" y="0px"
	 viewBox="0 0 600 600" enable-background="new 0 0 600 600" xml:space="preserve">
<path d="M356.9,149.5c25.4,15.8,43.3,42.5,46.5,73.5c10.4,4.8,21.9,7.5,34.1,7.5c44.5,0,80.7-35.7,80.7-79.8
	c0-44.1-36.1-79.9-80.7-79.9C393.4,70.9,357.6,106,356.9,149.5L356.9,149.5z M304,313c44.6,0,80.7-35.7,80.7-79.9
	c0-44.1-36.1-79.8-80.7-79.8c-44.5,0-80.7,35.7-80.7,79.9C223.4,277.3,259.5,313,304,313L304,313z M338.3,318.5h-68.4
	c-56.9,0-103.3,45.9-103.3,102.3v82.9l0.2,1.3l5.8,1.8c54.3,16.8,101.5,22.4,140.4,22.4c75.9,0,119.9-21.4,122.6-22.8l5.4-2.7h0.6
	v-82.9C441.6,364.4,395.2,318.5,338.3,318.5L338.3,318.5z M471.7,236h-67.9c-0.7,26.9-12.3,51.1-30.7,68.6
	c50.6,14.9,87.7,61.4,87.7,116.3v25.5c67.1-2.4,105.7-21.2,108.2-22.5l5.4-2.7h0.6v-82.9C575,281.9,528.7,236,471.7,236L471.7,236z
	 M162.5,230.6c15.8,0,30.5-4.6,42.9-12.3c4-25.5,17.8-47.9,37.5-63.1c0.1-1.5,0.2-2.9,0.2-4.5c0-44.1-36.1-79.9-80.7-79.9
	c-44.5,0-80.7,35.8-80.7,79.9S118,230.6,162.5,230.6L162.5,230.6z M235,304.6c-18.3-17.4-29.8-41.4-30.7-68.2
	c-2.5-0.2-5-0.4-7.6-0.4h-68.4C71.3,236,25,281.9,25,338.3v82.9l0.2,1.3l5.8,1.8c43.6,13.5,82.5,19.7,116.3,21.6v-25
	C147.3,366,184.3,319.5,235,304.6L235,304.6z M235,304.6"/>
</svg>
